<!DOCTYPE svg PUBLIC "-//W3C//DTD SVG 1.1//EN" "http://www.w3.org/Graphics/SVG/1.1/DTD/svg11.dtd">
<!-- Uploaded to: SVG Repo, www.svgrepo.com, Transformed by: SVG Repo Mixer Tools -->
<svg fill="#000000" height="24px" width="24px" version="1.1" id="Layer_1" xmlns="http://www.w3.org/2000/svg" xmlns:xlink="http://www.w3.org/1999/xlink" viewBox="0 0 512.138 512.138" xml:space="preserve" transform="rotate(90)">

<g id="SVGRepo_bgCarrier" stroke-width="0"/>

<g id="SVGRepo_tracerCarrier" stroke-linecap="round" stroke-linejoin="round"/>

<g id="SVGRepo_iconCarrier"> <g> <g> <path d="M458.738,0.138c-0.82,0-1.802-0.015-4.902-0.069c-36.052-0.591-69.274,2.506-109.992,14.458 C226.332,49.014,143.928,156.07,138.841,277.471H53.405c-19.006,0-28.524,22.979-15.085,36.418l192,192 c8.331,8.331,21.839,8.331,30.17,0l192-192c13.439-13.439,3.921-36.418-15.085-36.418H327.698 c-4.823-48.213,7.119-103.873,48.352-157.335c22.808-29.572,53.666-56.566,93.599-80.333 C488.276,28.717,480.415,0.138,458.738,0.138z M342.265,94.079c-51.328,66.551-64.332,136.755-55.876,197.184 c0.818,5.85,1.676,10.162,2.331,12.758c2.39,9.476,10.913,16.117,20.686,16.117h76.497L245.405,460.634L104.908,320.138h55.163 c12.07,0,21.737-10.005,21.321-22.069c-0.03-0.863-0.045-1.551-0.076-3.33c-2.378-109.588,69.751-208.518,174.544-239.273 c10.339-3.035,20.128-5.422,29.593-7.27C369.03,62.686,354.661,78.006,342.265,94.079z"/> </g> </g> </g>

</svg>