<?xml version="1.0" encoding="iso-8859-1"?>
<!-- Uploaded to: SVG Repo, www.svgrepo.com, Generator: SVG Repo Mixer Tools -->
<svg fill="#000000" height="24px" width="24px" version="1.1" id="Layer_1" xmlns="http://www.w3.org/2000/svg" xmlns:xlink="http://www.w3.org/1999/xlink"
	 viewBox="0 0 512 512" xml:space="preserve">
<g>
	<g>
		<path d="M384.572,112.887C380.752,49.997,328.376,0,264.542,0c-57.357,0-106.205,40.818-117.691,95.537
			c-48.102,8.493-84.896,50.783-84.896,101.115c-0.001,56.614,46.058,102.674,102.673,102.674h72.172v69.837l-38.683-38.684
			l-27.153,27.153l85.521,85.522l84.549-84.549l-27.153-27.153l-38.682,38.683v-70.808h79.167c52.758,0,95.679-42.921,95.679-95.679
			C450.045,162.179,422.858,125.731,384.572,112.887z M354.365,260.925H164.628c-35.441,0-64.274-28.832-64.274-64.274
			c0-35.064,28.526-63.892,63.589-64.264l17.731-0.187l1.222-17.688c2.945-42.68,38.81-76.113,81.646-76.113
			c45.133,0,81.851,36.719,81.851,81.851c0,2.076-0.081,4.184-0.237,6.267l-1.344,17.874l17.738,2.568
			c27.987,4.052,49.093,28.424,49.093,56.687C411.644,235.231,385.949,260.925,354.365,260.925z"/>
	</g>
</g>
<g>
	<g>
		<polygon points="390.399,390.4 390.399,473.6 121.599,473.6 121.599,390.4 83.199,390.4 83.199,512 428.799,512 428.799,390.4 		
			"/>
	</g>
</g>
</svg>